<svg width="135" height="61" viewBox="0 0 135 61" fill="none" xmlns="http://www.w3.org/2000/svg">
<g clip-path="url(#clip0_136_215)">
<path d="M131.67 45.3896C129.46 48.0896 126.29 48.8396 125.15 49.0396C121.93 49.6096 121.17 48.1996 117.45 48.7796C115.01 49.1596 113.16 50.1096 111.45 50.9996C108.97 52.2796 108.55 52.9796 106.1 54.3896C106.1 54.3896 103.41 55.9396 99.84 57.1296C93.46 59.2496 83.98 58.3296 76.07 54.4596C70.77 51.8596 69.76 49.6696 66.3 49.9996C62.88 50.3296 61.71 52.6896 56.67 53.0696C53.64 53.2996 51.33 52.6596 50.65 52.4496C49.46 52.0896 49.24 51.8296 48.49 51.5496C44.04 49.9396 40.59 54.3496 35.1 53.9796C33.02 53.8396 32.41 53.1396 29.89 52.1896C18.75 47.9996 12.15 54.7496 5.11997 50.3196C1.85997 48.2596 -0.920026 44.3396 -0.430026 40.7496C0.239974 35.8496 6.89997 32.0296 12.21 32.3696C16.29 32.6296 17.56 35.2096 20.45 34.3396C23.3 33.4796 23.65 30.4896 26.79 26.3296C29.58 22.6396 33.16 19.8996 35.7 18.6296C45.74 13.5796 55.62 23.2896 61.38 18.3296C64.25 15.8596 62.17 13.1196 66.02 8.54963C70.6 3.10963 77.29 2.53963 77.66 2.50963C78.12 2.47963 85.29 2.08963 90.23 7.10963C92.5 9.40963 93.53 11.9296 94.27 13.7896C96.63 19.7196 94.93 22.0196 96.7 23.5996C100.08 26.6196 106.69 18.6296 116.79 20.2096C124.73 21.4496 129.69 27.8096 130.36 28.6996C132.71 31.7996 133.32 34.4496 133.45 35.0596C133.74 36.4296 134.83 41.5096 131.66 45.3796L131.67 45.3896Z" fill="#E9F4F6"/>
<path d="M90.6399 19.8404C93.2799 23.0004 94.7399 26.1404 95.5399 28.3104C100.69 25.5504 105.23 24.3104 108.26 23.7004C113.61 22.6204 118.55 21.6204 123.77 23.9204C128.04 25.8004 130.57 29.0204 131.8 30.8804C131.27 29.1504 128.84 21.9204 121.66 18.1604C117.18 15.8104 112.76 15.8004 111.27 15.8404C107.29 15.9404 104.42 16.9404 103.75 17.1904C101.26 18.1504 99.4199 19.4204 98.2399 20.3704C97.8299 17.9004 96.6699 13.1104 92.9099 8.6104C91.4399 6.8604 87.4099 2.0004 80.3599 0.810404C78.8799 0.560404 73.6899 -0.239596 68.6999 2.4804C64.5199 4.7604 62.1599 8.0504 61.2599 9.4204C60.5699 10.4704 60.0799 11.4104 59.7499 12.1004C57.6399 10.8104 51.0599 7.1704 42.3299 8.2504C40.7299 8.4504 30.1699 9.93041 23.8299 19.3704C20.7599 23.9404 19.9399 28.4804 19.6899 30.9904C18.4299 30.3004 16.0199 29.1904 12.8399 29.1304C11.8899 29.1104 6.39987 29.0004 2.71987 32.9804C-0.930132 36.9204 -0.560132 42.4904 -0.420132 42.5204C-0.320132 42.5404 -0.210132 39.9704 1.71987 37.5104C3.52987 35.2104 5.91987 34.3204 6.60987 34.0704C10.2499 32.7604 13.4499 33.7504 14.6899 34.1504C18.1499 35.2704 20.2399 37.4804 21.1099 38.5304C21.8999 36.7204 23.2699 33.9604 25.4899 30.9404C28.4899 26.8804 33.7399 19.7404 41.5399 19.0604C45.3499 18.7304 48.7899 20.0204 51.8199 21.1604C54.8099 22.2904 57.1399 23.6504 58.7399 24.7304C61.0399 21.4504 65.0699 16.9004 71.3599 14.2004C74.0299 13.0504 76.6499 11.9704 79.9699 12.4504C85.0599 13.1904 88.3199 17.0904 90.6399 19.8604V19.8404Z" fill="white"/>
<path d="M107.4 54.8804C110.47 52.8304 109.87 52.8004 112.01 51.2704C117.46 47.3704 125.7 52.6804 131.07 48.2004C133.02 46.5704 134.38 43.8204 134.56 41.0704C134.69 39.0104 134.13 37.3304 133.71 36.3604C133.56 37.3904 133.06 40.0003 130.92 42.2803C130.53 42.7003 127.13 46.2104 122.12 45.6203C118.91 45.2403 116.83 43.3803 116.11 42.6703C114.17 44.1503 110.56 46.3703 105.85 46.4604C102.41 46.5303 99.8201 45.4004 96.8801 44.2004C92.9301 42.5904 90.0301 40.5203 88.1501 38.9604C87.3801 39.8003 82.9601 44.4704 75.8701 44.5704C67.0201 44.7004 61.9401 37.6003 61.5401 37.0103C60.3901 40.7803 57.0101 42.8004 54.3401 42.1504C51.9501 41.5704 50.8601 39.0304 50.7001 38.6604C48.1401 44.7104 42.4501 48.5104 36.6001 48.2104C30.7301 47.9103 27.1001 43.6104 26.4501 42.8104C24.9801 45.0604 22.3301 46.1204 19.9301 45.4904C17.0301 44.7204 16.0001 41.8504 15.9201 41.6104C15.7401 41.9604 13.3201 46.9303 7.93014 47.6003C4.09014 48.0703 1.27014 46.0504 0.640137 45.5704C1.48014 47.8704 2.64014 49.1603 3.39014 49.8503C9.86014 55.7703 24.4901 52.5004 28.5801 53.7904C28.8501 53.8804 30.2501 54.3104 32.2201 54.6104C32.6101 54.6704 33.0501 54.7204 33.5801 54.7404C38.8301 55.0104 42.0601 52.9104 46.3301 53.7704C47.0601 53.9204 47.2701 54.0504 48.4101 54.2404C49.0701 54.3504 51.2801 54.7003 54.1701 54.6404C58.9801 54.5303 60.0601 53.4004 63.3201 53.3004C66.5401 53.1903 68.9001 54.0604 72.7101 55.6304C77.1201 57.4504 81.6801 59.3304 86.2201 59.9804C97.2001 61.5403 106.32 55.6203 107.41 54.8904L107.4 54.8804Z" fill="#CEEAF0"/>
</g>
<defs>
<clipPath id="clip0_136_215">
<rect width="135.07" height="59.73" fill="white" transform="translate(-0.5 0.5)"/>
</clipPath>
</defs>
</svg>
