<svg width="233" height="85" viewBox="0 0 233 85" fill="none" xmlns="http://www.w3.org/2000/svg">
<g clip-path="url(#clip0_136_223)">
<path d="M198.96 58.95C192.14 63.84 184.87 58.6 178.38 63.42C175.7 65.41 175.4 67.47 173.77 70.08C165.37 83.56 136.71 87.93 116.61 79.46C110.91 77.06 107.85 72.04 101.84 72.56C96.4399 73.04 94.78 75.38 87.18 77.1C81.2 78.46 76.53 78 70.04 77.32C59.1 76.17 55.8799 73.87 48.1699 72.41C26.4299 68.27 16.57 79.75 7.04995 72.36C2.61995 68.93 0.289951 62.98 0.619951 57.67C1.16995 48.97 8.77995 44.05 9.68995 43.48C14.03 40.78 18.4499 40.54 20.4 40.45C28.2199 40.11 30.6499 43.75 34.5999 42.2C38.4499 40.69 37.7199 36.6 41.7799 29.04C43.2399 26.31 50.6499 13.22 62.8699 10.87C65.4299 10.38 69.24 9.66002 72.75 11.58C77.37 14.12 78.54 18.96 80.65 18.5C81.93 18.22 81.7 16.47 83.64 15.38C85.62 14.27 88.31 14.74 90.08 15.7C93.86 17.76 93.68 22.19 95.31 22.27C97.36 22.37 97.58 15.39 101.94 9.63002C108.11 1.49002 118.88 0.670016 119.69 0.620016C120.39 0.580016 131.28 0.0700164 138.72 7.77002C142.55 11.73 144.33 16.68 144.76 17.97C146.88 24.25 145.76 28.07 147.88 29.01C150.27 30.08 152.4 25.45 159.29 23.36C161.11 22.81 165.63 21.44 170.45 23.3C176.27 25.55 178.76 31.05 178.96 31.52C180.83 35.84 179.26 38.19 181.16 39.53C183.69 41.31 186.95 37.36 193.21 38.44C194.31 38.63 196.91 39.11 199.35 41.08C199.79 41.43 204.41 45.28 203.95 50.78C203.55 55.54 199.59 58.48 198.94 58.95H198.96Z" fill="#F2F7F8"/>
<path d="M139.39 83.91C131.32 83.91 123.35 82.42 116.56 79.56C114.44 78.67 112.69 77.42 111.01 76.22C108.22 74.23 105.59 72.35 101.84 72.68C99.0299 72.93 97.1899 73.7 95.0699 74.6C93.0799 75.44 90.8199 76.4 87.1899 77.22C81.0699 78.61 76.1899 78.09 70.0199 77.44C63.3699 76.74 59.6999 75.63 56.1499 74.55C53.6999 73.81 51.3799 73.1 48.1399 72.52C38.0599 70.71 30.9099 72.27 25.1599 73.53C18.6899 74.95 16.3699 74.98 13.0299 74.29C11.4799 73.97 9.44995 73.56 7.35995 72.2C2.57995 69.11 0.309946 62.95 0.509946 57.67C0.829946 49.49 6.91995 44.39 9.05995 43.01C10.1299 42.32 16.7499 37.12 25.7699 38.12C28.2299 38.39 30.1999 39.05 31.4999 39.57C31.0699 37.27 29.1699 25.94 36.4299 16.33C43.8199 6.55 58.1999 1.84 69.3299 7.09C75.8699 10.18 79.2499 15.74 80.6299 18.4C80.7499 17.98 81.5299 15.48 84.1299 14.22C87.1799 12.74 90.0499 14.29 90.3499 14.46C93.6299 16.3 93.8599 20.04 93.8699 20.27C98.4299 8.7 108.62 0.880003 119.68 0.510003C130.09 0.160003 137.35 6.52 138.72 7.77C147.77 16.01 147.93 27.11 147.93 28.92C148.76 27.59 151.9 22.91 158.16 20.87C159.7 20.37 165.27 18.66 171.34 21.48C172.29 21.92 177.77 24.58 180.23 30.98C181.61 34.58 181.43 37.78 181.22 39.44C182.34 38.75 184.08 37.86 186.36 37.42C187.04 37.29 194.03 36.08 199.42 40.99C200.57 42.04 204.5 45.59 204.06 50.79C203.68 55.35 200.09 58.26 199 59.04C195.55 61.52 191.96 61.42 188.48 61.32C184.95 61.22 181.62 61.13 178.42 63.51C176.57 64.88 175.87 66.28 175.06 67.9C174.7 68.61 174.33 69.35 173.84 70.14C169.84 76.55 161 81.28 149.57 83.11C146.21 83.65 142.78 83.91 139.37 83.91H139.39ZM102.7 72.42C104.75 72.49 107.19 73.22 111.14 76.04C112.82 77.24 114.55 78.48 116.65 79.36C126.27 83.41 138.26 84.7 149.55 82.89C160.91 81.07 169.7 76.38 173.67 70.02C174.16 69.23 174.53 68.5 174.88 67.8C175.71 66.16 176.42 64.74 178.31 63.33C181.58 60.9 185.1 61 188.51 61.1C191.95 61.19 195.5 61.29 198.89 58.86C199.96 58.09 203.48 55.24 203.86 50.77C204.31 45.37 199.81 41.58 199.3 41.16C196.83 39.17 194.2 38.72 193.21 38.55C190.04 38.01 187.49 38.83 185.58 39.44C180.6 41.03 179.85 43.25 178.13 42.69C175.3 41.77 177.05 35.73 172.89 31.3C170.02 28.24 166.04 27.76 164.92 27.62C158.83 26.88 152.51 30.41 148.67 36.51C143.72 25.97 138.81 23.22 135.18 22.71C126.48 21.5 120.94 32.65 109.12 32.52C103.6 32.46 99.1199 29.97 96.2399 27.92C96.1299 28.43 95.1399 32.77 91.3299 34.36C90.63 34.65 87.8499 35.87 85.1999 34.36C83.0399 33.13 82.3999 30.9 82.2599 30.39C82.0799 31.48 79.5099 45.65 66.3699 51.46C55.6399 56.2 45.6699 51.93 43.8199 51.09C38.2299 48.56 34.7899 44.75 33.0999 42.59C31.8899 44.68 29.8999 47.27 26.8199 48.13C23.2599 49.14 21.1899 47.01 17.2099 46.65C11.5999 46.15 3.89995 49.34 1.49995 55.51C-1.20005 62.48 3.91995 70.5 9.46995 73.91C12.6999 75.89 15.6699 75.97 21.1199 76.06C31.0999 76.21 55.0199 73.95 56.2199 74.34C56.2199 74.34 56.2799 74.36 56.3499 74.38C56.6099 74.46 57.1999 74.65 57.9499 74.87C59.0199 75.18 60.4399 75.57 62.1299 75.95C64.2799 76.44 66.81 76.87 70.0499 77.22C76.2 77.87 81.0699 78.38 87.1499 77C88.63 76.66 89.88 76.31 90.9799 75.94C92.8699 75.32 93.9699 74.8 94.9899 74.39C97.6099 73.33 100.09 72.33 102.7 72.42Z" fill="white"/>
<path d="M111.25 64.3996C104.23 65.3196 98.14 62.7696 94.39 60.7196C91.45 64.2196 86.75 68.6496 81.21 68.3796C76.33 68.1396 75.73 64.4996 70.48 62.8596C62.2 60.2796 58.18 67.6396 41.3 70.4996C34.56 71.6396 30.82 72.2696 26.26 70.6396C20.48 68.5696 18.46 64.6696 13.17 64.2496C9.00004 63.9196 5.41004 65.9396 3.04004 67.6996C4.02004 69.3796 5.67004 71.7796 8.25004 74.0796C14.66 79.7796 22.15 80.6496 27.04 81.2196C34.93 82.1396 41.13 80.8297 47.79 79.4097C52.77 78.3497 56.85 77.0596 59.75 76.0396C61.93 76.8296 65.06 77.8996 68.88 78.9696C78.72 81.7296 87.34 82.8796 99 83.6996C107.72 84.3196 122.08 85.0296 140.56 84.1896C153.06 83.6196 161.48 82.6096 169.42 76.8296C172.44 74.6296 174.58 72.3296 175.95 70.6696C178.09 71.4196 182.63 72.6496 187.68 71.0696C194.48 68.9296 200.32 62.2696 198.97 58.9196C198.52 57.8096 197.06 56.4896 187 56.0996C171.18 55.4896 167.41 58.4896 157.07 57.6796C144.14 56.6696 144.68 51.5796 136.11 52.7296C125.05 54.2096 122.36 62.9296 111.28 64.3796L111.25 64.3996Z" fill="#CEEAF0"/>
<path d="M220.68 59.9803C219.61 58.8603 217.91 57.3303 215.52 56.0303C214.26 55.3403 212.06 54.1703 209.2 53.8203C204.45 53.2403 200.63 55.2603 199.03 56.2403C197.86 54.9903 190.95 47.8403 179.79 47.7403C169.57 47.6503 162.89 53.5303 161.46 54.8603C160.27 54.2303 157.92 53.2203 154.92 53.4203C148.72 53.8403 145.28 59.0803 144.86 59.7403C143.92 59.1803 142.44 58.4103 140.53 57.8103C138.59 57.2003 134.7 55.9903 130.59 57.4603C129.18 57.9703 126.11 59.0703 125.4 61.7903C125.38 61.8803 124.82 64.1303 126.08 65.7003C128.24 68.4003 134.09 66.7203 135.51 66.7203C149.12 66.7403 229.76 75.3203 232.11 64.2703C232.38 63.0203 231.73 61.0903 230.52 59.9703C227.79 57.4403 222.38 59.3203 220.68 59.9703V59.9803Z" fill="white"/>
<path d="M219.9 62.6703C218.94 61.6503 217.38 60.2603 215.14 59.3203C211.39 57.7403 207.87 58.3203 206.12 58.6303C190.04 61.4703 188.77 63.7903 182.84 63.3903C174 62.8003 171.87 57.7803 161.8 57.5703C158.56 57.5003 155.24 57.7503 151.75 59.0303C148.7 60.1503 146.44 61.6703 144.98 62.8203C142.63 61.8803 136.5 59.8203 130.36 62.4803C129.14 63.0103 125.95 64.3903 126.07 65.7103C126.37 68.8803 145.17 67.3403 172.79 70.0403C172.79 70.0403 214.17 74.0903 228.44 67.5403C229.43 67.0903 232.17 65.8303 232.1 64.2903C232.05 63.1603 230.53 62.3903 229.92 62.0803C226.15 60.1603 221.65 61.9003 219.89 62.6903L219.9 62.6703Z" fill="#CEEAF0"/>
</g>
<defs>
<clipPath id="clip0_136_223">
<rect width="231.67" height="84.1" fill="white" transform="translate(0.5 0.5)"/>
</clipPath>
</defs>
</svg>
