<svg width="80" height="44" viewBox="0 0 80 44" fill="none" xmlns="http://www.w3.org/2000/svg">
<g clip-path="url(#clip0_136_219)">
<path d="M6.22006 37.61C4.40006 36.31 0.460058 33.57 0.500058 29.49C0.500058 29.12 0.590058 25.74 3.37006 23.37C5.33006 21.69 7.55006 21.38 9.48006 21.14C11.3301 20.91 12.8901 21.04 13.9601 21.21C13.3701 18.27 14.3501 15.25 16.5401 13.36C19.1701 11.09 23.1401 10.8 26.2901 12.72C26.5401 11.32 27.1301 9.09 28.6901 6.84C29.2001 6.12 33.3501 0.350005 40.3101 0.500005C45.1701 0.610005 48.3801 3.53 49.2901 4.37C53.6001 8.4 53.9201 13.67 53.9601 14.8C54.4501 14.32 55.2301 13.68 56.3001 13.14C57.1101 12.73 61.3801 10.74 65.3101 13.17C68.0101 14.84 69.5601 17.97 69.3601 21.27C70.3001 21.18 72.3001 21.12 74.4701 22.15C75.2101 22.5 77.6001 23.64 78.7001 26.2C79.7101 28.56 79.0601 30.84 78.8801 31.48C76.8601 38.66 62.3301 45.79 51.5301 42.1C48.7101 41.14 46.6201 39.57 42.3201 39.32C38.0801 39.07 35.6501 40.34 32.3001 41.27C23.5301 43.69 13.0801 42.49 6.22006 37.6V37.61Z" fill="white"/>
<path d="M74.75 35.8696C75.98 35.0096 78.88 32.9996 78.85 30.1196C78.82 26.9396 75.7 25.0796 75.43 24.9196C72.56 23.2296 68.65 23.6896 65.76 26.2096C64.98 25.1796 62.47 22.1496 57.99 20.9296C52.42 19.4096 47.91 21.7996 46.98 22.3296C45.46 20.8696 42.95 18.7896 39.38 17.2096C37.31 16.2896 35.11 15.3196 32.09 15.2696C26.68 15.1796 22.79 18.1296 21.44 19.2796C18.73 21.5896 17.37 24.2596 16.72 25.8596C15.58 25.4696 13.71 24.9696 11.4 25.0596C9.58004 25.1296 6.57004 25.2496 4.43004 27.3996C2.76004 29.0696 1.62004 32.0496 2.28004 34.0196C4.04004 39.2996 18.11 35.4896 42.95 37.8596C53.32 38.8496 67.3501 41.0796 74.76 35.8696H74.75Z" fill="#F2F7F8"/>
<path d="M72.99 34.58C68.51 35.35 65.36 32.33 65.05 32.02C63.7 32.72 61.53 33.57 58.84 33.52C51.57 33.39 47.27 26.82 46.84 26.13C45.88 27.21 40.17 33.44 31.06 33.52C25.34 33.57 21.16 31.17 19.42 30.03C19.14 30.56 16.55 35.31 10.95 36.19C6.33002 36.92 2.92002 34.5 2.27002 34.02C2.77002 34.77 3.50002 35.77 4.49002 36.86C4.82002 37.22 7.55002 40.18 11.14 42C15.13 44.03 18.79 43.96 23.73 43.86C31.76 43.71 37.41 41.36 39.33 40.49C40.27 40.06 41.05 39.67 41.59 39.37C44.54 40.85 55.82 46.16 66.89 42.62C69.81 41.69 75.02 40.02 77.68 35.11C78.64 33.32 78.99 31.63 79.13 30.47C78.82 30.96 76.87 33.92 73.01 34.58H72.99Z" fill="#CEEAF0"/>
</g>
<defs>
<clipPath id="clip0_136_219">
<rect width="78.74" height="43.4" fill="white" transform="translate(0.5 0.5)"/>
</clipPath>
</defs>
</svg>
