<svg width="127" height="47" viewBox="0 0 127 47" fill="none" xmlns="http://www.w3.org/2000/svg">
<g clip-path="url(#clip0_136_237)">
<path d="M108.438 32.4706C104.729 35.1453 100.775 32.2792 97.2449 34.9156C95.7874 36.004 95.6242 37.1308 94.7377 38.5584C90.1691 45.9315 74.5816 48.3218 63.6497 43.6889C60.5496 42.3762 58.8853 39.6304 55.6166 39.9149C52.6797 40.1774 51.7768 41.4573 47.6434 42.3981C44.391 43.142 41.8511 42.8904 38.3213 42.5184C32.3713 41.8894 30.62 40.6314 26.4267 39.8328C14.6028 37.5684 9.2402 43.8476 4.06249 39.8055C1.65311 37.9294 0.385878 34.6749 0.565357 31.7705C0.864489 27.0119 5.00339 24.3208 5.49832 24.009C7.85875 22.5322 10.2627 22.401 11.3232 22.3517C15.5764 22.1658 16.898 24.1567 19.0463 23.3089C21.1402 22.483 20.7432 20.2459 22.9513 16.1108C23.7454 14.6176 27.7755 7.45779 34.4217 6.17242C35.814 5.9044 37.8862 5.51059 39.7952 6.56077C42.3079 7.95006 42.9443 10.5974 44.0918 10.3458C44.788 10.1926 44.6629 9.23544 45.718 8.63924C46.7949 8.03211 48.2579 8.28918 49.2206 8.81427C51.2765 9.94103 51.1786 12.3641 52.0651 12.4079C53.18 12.4625 53.2997 8.64471 55.671 5.49418C59.0267 1.04186 64.8843 0.593345 65.3248 0.565997C65.7055 0.544118 71.6283 0.265164 75.6748 4.47682C77.7578 6.64281 78.7259 9.3503 78.9598 10.0559C80.1128 13.4908 79.5037 15.5803 80.6567 16.0944C81.9566 16.6797 83.115 14.1472 86.8623 13.004C87.8522 12.7032 90.3105 11.9539 92.932 12.9712C96.0974 14.2019 97.4516 17.2102 97.5604 17.4673C98.5774 19.8302 97.7236 21.1156 98.7569 21.8485C100.133 22.8221 101.906 20.6616 105.311 21.2523C105.909 21.3562 107.323 21.6188 108.65 22.6963C108.889 22.8878 111.402 24.9936 111.152 28.0019C110.934 30.6055 108.781 32.2136 108.427 32.4706H108.438Z" fill="#F2F7F8"/>
<path d="M76.039 46.1228C71.6499 46.1228 67.3152 45.3078 63.6223 43.7435C62.4693 43.2567 61.5175 42.573 60.6038 41.9166C59.0864 40.8281 57.656 39.7998 55.6164 39.9803C54.0882 40.1171 53.0874 40.5382 51.9344 41.0305C50.8521 41.49 49.6229 42.015 47.6487 42.4636C44.3201 43.2239 41.666 42.9394 38.3103 42.5839C34.6935 42.201 32.6975 41.5939 30.7667 41.0032C29.4342 40.5984 28.1724 40.2101 26.4102 39.8928C20.928 38.9028 17.0392 39.7561 13.912 40.4453C10.3931 41.2219 9.13127 41.2384 7.31472 40.8609C6.47171 40.6859 5.36764 40.4617 4.23094 39.7178C1.63121 38.0277 0.396608 34.6583 0.505384 31.7703C0.679424 27.2961 3.99164 24.5066 5.15553 23.7518C5.73748 23.3744 9.33795 20.5301 14.2437 21.0771C15.5817 21.2248 16.6531 21.5858 17.3601 21.8702C17.1263 20.6122 16.0929 14.415 20.0414 9.15869C24.0607 3.80934 31.8817 1.23312 37.935 4.1047C41.492 5.79483 43.3303 8.83598 44.0808 10.2909C44.1461 10.0612 44.5703 8.69376 45.9844 8.00459C47.6432 7.19507 49.2041 8.04287 49.3673 8.13586C51.1512 9.14228 51.2763 11.1879 51.2817 11.3137C53.7618 4.98532 59.3039 0.708033 65.3192 0.505655C70.981 0.314216 74.9295 3.79293 75.6746 4.47664C80.5967 8.98366 80.6837 15.055 80.6837 16.045C81.1351 15.3175 82.8429 12.7577 86.2476 11.6419C87.0852 11.3684 90.1146 10.4331 93.4159 11.9756C93.9326 12.2162 96.913 13.6712 98.251 17.1718C99.0015 19.1409 98.9036 20.8911 98.7894 21.7991C99.3985 21.4217 100.345 20.9349 101.585 20.6942C101.955 20.6231 105.756 19.9613 108.688 22.6469C109.313 23.2212 111.451 25.163 111.212 28.0072C111.005 30.5014 109.052 32.0931 108.46 32.5197C106.583 33.8762 104.631 33.8215 102.738 33.7668C100.818 33.7121 99.007 33.6628 97.2665 34.9646C96.2604 35.714 95.8797 36.4797 95.4391 37.3658C95.2433 37.7542 95.0421 38.1589 94.7756 38.591C92.6001 42.0971 87.7922 44.6843 81.5757 45.6852C79.7483 45.9806 77.8828 46.1228 76.0281 46.1228H76.039ZM56.0842 39.8381C57.1991 39.8764 58.5262 40.2757 60.6745 41.8181C61.5882 42.4745 62.5291 43.1527 63.6713 43.6341C68.9034 45.8493 75.4244 46.5549 81.5648 45.5649C87.7433 44.5694 92.5239 42.0041 94.6831 38.5254C94.9496 38.0933 95.1509 37.694 95.3412 37.3111C95.7926 36.4141 96.1788 35.6374 97.2067 34.8662C98.9852 33.537 100.9 33.5917 102.754 33.6464C104.625 33.6957 106.556 33.7504 108.4 32.4212C108.982 32.0001 110.896 30.4412 111.103 27.9963C111.348 25.0426 108.9 22.9696 108.623 22.7399C107.279 21.6514 105.849 21.4053 105.31 21.3123C103.586 21.017 102.2 21.4655 101.161 21.7991C98.4522 22.6688 98.0443 23.8831 97.1088 23.5768C95.5697 23.0736 96.5214 19.7699 94.2589 17.3468C92.698 15.6731 90.5333 15.4105 89.9242 15.334C86.612 14.9292 83.1747 16.86 81.0862 20.1965C78.394 14.4315 75.7236 12.9273 73.7493 12.6483C69.0176 11.9865 66.0045 18.0852 59.5759 18.0141C56.5737 17.9813 54.1371 16.6193 52.5707 15.498C52.5109 15.777 51.9725 18.1508 49.9003 19.0205C49.5196 19.1791 48.0076 19.8464 46.5663 19.0205C45.3916 18.3477 45.0435 17.128 44.9673 16.8491C44.8694 17.4453 43.4717 25.1958 36.3251 28.3737C30.4893 30.9663 25.0669 28.6307 24.0607 28.1713C21.0204 26.7875 19.1495 24.7035 18.2303 23.5221C17.5722 24.6652 16.4899 26.0819 14.8148 26.5523C12.8786 27.1047 11.7528 25.9397 9.58813 25.7428C6.53698 25.4693 2.34913 27.2141 1.04382 30.5889C-0.424646 34.4013 2.36 38.7879 5.37852 40.6531C7.13525 41.7361 8.75056 41.7799 11.7147 41.8291C17.1426 41.9111 30.1521 40.675 30.8048 40.8883C30.8048 40.8883 30.8374 40.8992 30.8755 40.9102C31.0169 40.9539 31.3378 41.0579 31.7457 41.1782C32.3276 41.3477 33.0999 41.5611 34.0191 41.7689C35.1884 42.0369 36.5644 42.2721 38.3266 42.4636C41.6714 42.8191 44.3201 43.098 47.6269 42.3432C48.4318 42.1573 49.1117 41.9658 49.7099 41.7634C50.7379 41.4243 51.3361 41.1399 51.8909 40.9156C53.3158 40.3359 54.6647 39.7889 56.0842 39.8381Z" fill="white"/>
<path d="M60.7343 35.4516C56.9163 35.9548 53.6041 34.5601 51.5645 33.4388C49.9655 35.3532 47.4093 37.7762 44.3962 37.6286C41.7421 37.4973 41.4158 35.5063 38.5604 34.6093C34.0571 33.1981 31.8707 37.2238 22.6901 38.7881C19.0244 39.4117 16.9903 39.7563 14.5102 38.8647C11.3666 37.7325 10.2679 35.5993 7.39082 35.3696C5.12285 35.1891 3.17034 36.294 1.88135 37.2566C2.41435 38.1755 3.31174 39.4883 4.71495 40.7463C8.2012 43.864 12.2748 44.3399 14.9344 44.6516C19.2256 45.1548 22.5976 44.4383 26.2198 43.6616C28.9284 43.0818 31.1474 42.3762 32.7246 41.8183C33.9103 42.2504 35.6126 42.8357 37.6902 43.421C43.042 44.9306 47.7302 45.5596 54.0718 46.0081C58.8144 46.3472 66.6245 46.7356 76.6753 46.2761C83.4738 45.9644 88.0532 45.4119 92.3716 42.2504C94.0141 41.0471 95.178 39.7891 95.9231 38.8811C97.087 39.2913 99.5562 39.9641 102.303 39.0999C106.001 37.9294 109.177 34.2866 108.443 32.4543C108.198 31.8471 107.404 31.1251 101.933 30.9118C93.3288 30.5782 91.2784 32.2191 85.6547 31.776C78.6224 31.2236 78.9161 28.4395 74.2551 29.0685C68.2398 29.878 66.7768 34.6476 60.7506 35.4407L60.7343 35.4516Z" fill="#CEEAF0"/>
<path d="M120.251 33.0333C119.669 32.4207 118.744 31.5839 117.444 30.8728C116.759 30.4954 115.563 29.8555 114.007 29.664C111.424 29.3468 109.346 30.4516 108.476 30.9877C107.84 30.304 104.081 26.3931 98.0117 26.3384C92.4533 26.2892 88.8202 29.5054 88.0425 30.2329C87.3952 29.8883 86.1171 29.3358 84.4855 29.4452C81.1135 29.675 79.2425 32.5411 79.0141 32.9021C78.5029 32.5958 77.6979 32.1746 76.6591 31.8464C75.604 31.5128 73.4883 30.8509 71.253 31.655C70.4861 31.9339 68.8164 32.5356 68.4302 34.0233C68.4194 34.0726 68.1148 35.3033 68.8001 36.162C69.9749 37.6388 73.1565 36.7199 73.9288 36.7199C81.331 36.7308 125.189 41.4238 126.467 35.3798C126.614 34.6961 126.261 33.6405 125.603 33.0279C124.118 31.644 121.175 32.6723 120.251 33.0279V33.0333Z" fill="white"/>
<path d="M119.827 34.5053C119.305 33.9474 118.456 33.1872 117.238 32.673C115.198 31.8088 113.284 32.126 112.332 32.2956C103.587 33.849 102.896 35.1179 99.6707 34.8992C94.8628 34.5765 93.7043 31.8307 88.2275 31.7158C86.4653 31.6775 84.6597 31.8143 82.7615 32.5144C81.1027 33.127 79.8735 33.9584 79.0795 34.5874C77.8014 34.0732 74.4674 32.9465 71.128 34.4014C70.4645 34.6913 68.7295 35.4461 68.7948 36.1681C68.9579 37.902 79.1828 37.0597 94.2047 38.5365C94.2047 38.5365 116.71 40.7517 124.471 37.1691C125.01 36.9229 126.5 36.2338 126.462 35.3914C126.435 34.7734 125.608 34.3522 125.276 34.1826C123.226 33.1325 120.779 34.0842 119.821 34.5163L119.827 34.5053Z" fill="#CEEAF0"/>
</g>
<defs>
<clipPath id="clip0_136_237">
<rect width="126" height="46" fill="white" transform="translate(0.5 0.5)"/>
</clipPath>
</defs>
</svg>
