<svg width="160" height="70" viewBox="0 0 160 70" fill="none" xmlns="http://www.w3.org/2000/svg">
<g clip-path="url(#clip0_136_230)">
<path d="M85.9899 10.7595C90.2199 8.09955 94.5099 5.67955 98.9599 3.55955C95.5999 2.68955 92.8799 2.82955 92.5799 2.85955C91.9499 2.89955 83.5999 3.60955 78.8599 9.96955C76.7099 12.8595 75.8899 16.1295 75.1499 18.0795C78.9399 16.2395 82.4299 13.0095 85.9899 10.7595Z" fill="#F2F7F8"/>
<path d="M154.69 33.73C152.78 32.22 150.76 31.86 149.9 31.72C145.03 30.93 142.53 34.01 140.55 32.65C139.07 31.63 140.27 29.79 138.79 26.45C138.63 26.08 136.66 21.83 132.13 20.12C128.37 18.7 124.88 19.8 123.47 20.24C118.14 21.91 116.51 25.52 114.65 24.7C113 23.98 113.84 21.01 112.15 16.15C111.8 15.15 110.39 11.32 107.39 8.27C105.56 6.41 103.48 5.19 101.46 4.37C93.5199 7.95 86.0399 12.49 79.0399 17.7C71.2899 23.46 62.1599 20.15 53.1999 21C47.0199 21.59 41.7799 24.79 36.9499 28.48C34.7299 30.18 33.5799 31.94 31.8099 34.02C31.3599 34.54 30.5999 35.59 29.8099 35.8C28.0199 36.27 25.2199 34.89 23.0099 33.76C23.5199 35.32 24.4799 36.12 24.2399 36.4C23.9699 36.72 22.6899 35.79 20.8899 35.14C18.7299 34.37 16.8999 34.41 15.7599 34.41C14.8899 34.41 11.3099 34.51 7.79989 36.63C7.72989 36.68 7.60989 36.74 7.46989 36.83C6.77989 37.3 0.499892 41.42 0.529892 47.92C0.549892 51.7 2.68989 55.29 5.43989 57.23C8.59989 59.46 10.4399 58.03 16.7199 60.53C20.4499 62.02 20.0199 62.61 23.4499 63.89C28.4999 65.78 32.8899 65.79 35.4599 65.77C38.6899 65.75 42.4099 65.72 46.7899 64.08C51.6499 62.26 54.4999 59.51 58.1899 60.63C59.1599 60.93 59.1999 61.22 60.7399 61.69C61.5399 61.93 64.2599 62.69 67.8399 62.42C73.7799 61.97 75.1599 59.19 79.1899 58.8C83.8499 58.35 86.2599 62.23 90.6999 64.05C106.36 70.49 128.57 66.91 135 56.39C136.25 54.35 136.47 52.75 138.54 51.19C143.55 47.4 149.22 51.42 154.48 47.58C154.98 47.21 158.04 44.91 158.32 41.21C158.64 36.94 155.02 33.98 154.68 33.71L154.69 33.73Z" fill="#F2F7F8"/>
<path d="M154.81 51.22C150.15 53.51 141.31 49.98 139.3 51.64C138.74 52.11 138.3 52.64 138.3 52.64C137.45 53.75 137.43 54.78 135.05 57.41C131.13 61.75 126.61 63.77 126.43 63.52C126.16 63.15 131.32 60.65 135.69 54.73C137.57 52.19 143.92 43.58 140.98 34.38C139.21 28.82 134.97 25.94 134.18 25.42C126.77 20.56 118.54 23.82 117.97 24.06C114.65 25.44 112.52 27.57 111.4 28.86C110.72 27.07 108.96 23.15 104.86 20.03C100.77 16.91 96.63 16.34 94.38 16.05C86.65 15.08 80.63 18.21 78.9 19.15C73.96 21.8 73.19 24.22 70.65 25.73C70.02 26.11 69.21 26.46 68.23 26.71C67.24 26.97 66.39 27.03 65.83 27.04C63.6 22.94 59.16 21.26 55.91 22.6C52.9 23.84 51.98 27.24 51.86 27.72C50.99 27.17 49.42 26.34 47.34 26.18C44.29 25.95 42.05 27.29 40.72 28.08C35.34 31.29 33.39 37.15 32.83 39.06C31.55 38.31 29.76 37.56 28 38.07C25.82 38.7 25.49 40.74 23.85 40.87C21.78 41.04 20.92 37.94 18.33 36.32C16.46 35.15 13.27 34.51 7.48999 36.82C9.09999 35.87 12.06 34.44 15.78 34.4C16.94 34.39 18.79 34.29 20.91 35.13C21.46 35.35 21.9 35.57 22.21 35.74C22.05 35.14 21.86 34.17 22 33C22.05 32.51 22.25 30.94 23.35 29.52C24.96 27.44 28.02 26.3 30.27 27.11C31.89 27.7 32.71 29.15 33.07 28.91C33.43 28.67 32.4 27.37 32.51 25.59C32.67 23.04 35.06 21.37 35.39 21.14C36 20.72 38.02 19.35 40.34 20.09C41.81 20.56 42.65 21.63 42.97 22.09C42.92 21.11 42.91 18.39 44.67 15.72C45.01 15.21 47.45 11.65 52.03 11.15C55.5 10.78 58.05 12.4 58.75 12.86C60.86 14.25 61.93 16.05 62.4 16.96C62.64 16.44 63.31 15.22 64.7 14.52C67.07 13.32 69.43 14.57 69.7 14.73C71.48 15.72 72.12 17.4 72.29 17.87C72.64 15.8 73.73 11.12 77.6 7.00001C81.92 2.41001 88.86 -0.589994 95.77 0.810006C102.01 2.08001 105.76 6.35001 107.41 8.24001C110.48 11.75 111.83 15.19 112.17 16.12C113.05 18.55 113.36 20.71 113.48 22.25C115.17 20.95 118.41 18.87 122.94 18.17C124.85 17.88 128.28 17.4 132.19 18.95C136.32 20.59 138.55 23.54 139.52 24.86C141.7 27.82 142.5 30.75 142.83 32.42C144.05 31.92 146.72 31.03 149.92 31.68C153.68 32.44 158.13 35.31 159.14 40.23C160.01 44.44 158.22 49.51 154.82 51.18L154.81 51.22Z" fill="white"/>
<path d="M151.33 36.48C147.32 34.19 142.83 35.64 141.43 36.09C137.11 37.49 137.3 39.5 133.97 39.98C130.11 40.53 129.24 37.93 125.3 38.43C121.68 38.89 121.44 41.26 117.61 41.8C114.95 42.18 114.55 41.11 109.77 40.26C107.79 39.91 103.43 39.17 98.42 40.11C96.42 40.48 93.4 41.3 90 43.26C88.87 45.07 86.34 49.23 81.25 51.13C77.37 52.57 72.88 52.96 68.81 52.69C65.9399 52.5 53.7799 50.95 52.5 46.27C48.65 49.34 44.6499 52.49 39.7799 53.56C37.3599 54.09 32.18 55.17 26.9 52.48C24.3799 51.2 22.69 49.49 21.7 48.29C20.3 48.96 17.74 49.91 14.6 49.58C7.07995 48.78 3.41995 41.4 3.14995 40.82C2.32995 41.97 0.809951 44.46 0.539951 47.91C0.469951 48.81 0.0999508 55.03 5.06995 59.31C9.85995 63.42 15.7 62.36 16.42 62.22C18.18 63.77 25.49 69.86 36.5 69.79C48.93 69.71 56.71 61.85 58.08 60.41C58.69 61.04 62.88 65.2 69.38 64.84C75.59 64.5 79.22 60.31 79.82 59.6C82.21 61.06 85.88 63.08 90.64 64.77C95.5 66.5 113.52 72.9 129.92 63.97C132.86 62.37 137.37 59.4 141.73 53.93C147.89 56.04 153.95 53.69 155.9 49.54C157.36 46.44 156.41 42.54 154.87 40.02C154.45 39.34 153.4 37.66 151.32 36.47L151.33 36.48Z" fill="#CEEAF0"/>
<path d="M135.33 53.34C135.13 53.82 134.53 55.08 131.73 57.56C129.61 59.45 127.04 61.73 123.02 63.31C120.97 64.12 112.15 67.57 107.34 63.66C105.05 61.8 104.83 59.22 102.54 58.94C100.48 58.69 99.42 60.67 97.36 60.18C95.68 59.78 94.58 58.05 94.19 56.78C93.12 53.34 95.93 49.23 99.17 47.88C99.75 47.64 100.9 47.11 102.41 47.31C104.24 47.55 105.42 48.66 105.82 49.09C105.84 48.64 106.02 46.06 108.15 44.35C111.07 42.01 114.81 43.61 114.98 43.69C116.21 44.24 117.01 45.06 117.46 45.59C117.85 44.76 119.32 41.86 122.61 40.55C126.68 38.93 131.59 40.51 134.15 44.04C136.14 46.79 136.52 50.48 135.33 53.34Z" fill="white"/>
<path d="M135.03 54.04C135.11 54.11 133.02 57.18 129.99 59.7C122.58 65.87 110.66 68.39 106.65 64.19C105.46 62.94 105.32 61.46 103.5 60.7C101.32 59.77 99.6499 61.12 97.3699 60.18C95.8699 59.56 94.9499 58.3 94.3899 57.3C95.0599 57.72 96.2899 58.35 97.9199 58.45C101.28 58.66 103.59 56.44 104 56.03C105.88 57.59 109.54 60.15 114.77 61.12C117.27 61.58 124.12 62.44 129.93 58.66C132.92 56.72 134.94 53.96 135.02 54.04H135.03Z" fill="#CEEAF0"/>
</g>
<defs>
<clipPath id="clip0_136_230">
<rect width="158.84" height="69.3" fill="white" transform="translate(0.5 0.5)"/>
</clipPath>
</defs>
</svg>
