<svg width="19" height="19" viewBox="0 0 19 19" fill="none" xmlns="http://www.w3.org/2000/svg">
<rect x="0.5" y="0.5" width="18" height="18" fill="white" stroke="#262626"/>
<path d="M10.1853 9.5L13.6312 5.51077C13.689 5.44447 13.6404 5.34375 13.5511 5.34375H12.5036C12.4419 5.34375 12.3828 5.37052 12.3421 5.41642L9.5 8.707L6.65791 5.41642C6.61853 5.37052 6.55946 5.34375 6.49644 5.34375H5.44887C5.35961 5.34375 5.31104 5.44447 5.3688 5.51077L8.81475 9.5L5.3688 13.4892C5.35586 13.504 5.34756 13.5221 5.34488 13.5413C5.3422 13.5605 5.34526 13.5801 5.35369 13.5977C5.36212 13.6153 5.37557 13.6301 5.39245 13.6405C5.40932 13.6509 5.4289 13.6564 5.44887 13.6562H6.49644C6.55814 13.6562 6.61722 13.6295 6.65791 13.5836L9.5 10.293L12.3421 13.5836C12.3815 13.6295 12.4405 13.6562 12.5036 13.6562H13.5511C13.6404 13.6562 13.689 13.5555 13.6312 13.4892L10.1853 9.5Z" fill="#121212"/>
</svg>
