<svg width="22" height="12" viewBox="0 0 22 12" fill="none" xmlns="http://www.w3.org/2000/svg">
<path d="M3.19812 8.32706C2.89884 8.32997 2.60191 8.27413 2.32414 8.16272C2.30342 8.15413 2.28545 8.14001 2.27221 8.12191C2.25896 8.10381 2.25093 8.08243 2.24901 8.06008C2.24708 8.03773 2.25133 8.01528 2.26128 7.99519C2.27124 7.97509 2.28652 7.9581 2.30546 7.94609C2.47497 7.84385 2.59715 7.6787 2.64534 7.48669C1.87732 7.31331 1.20575 6.85044 0.770395 6.1944C0.753817 6.1607 0.745197 6.12364 0.745197 6.08609C0.745197 6.04853 0.753817 6.01147 0.770395 5.97777C1.20575 5.32174 1.87732 4.85886 2.64534 4.68548C2.59715 4.49347 2.47497 4.32833 2.30546 4.22608C2.28652 4.21407 2.27124 4.19709 2.26128 4.17699C2.25133 4.15689 2.24708 4.13444 2.24901 4.11209C2.25093 4.08975 2.25896 4.06836 2.27221 4.05026C2.28545 4.03216 2.30342 4.01804 2.32414 4.00945C2.60191 3.89804 2.89885 3.8422 3.19812 3.84511C3.52036 3.84635 3.83783 3.923 4.12514 4.06893C4.41245 4.21485 4.66162 4.426 4.8527 4.68548L5.2262 4.5921L5.2262 7.58007L4.8527 7.48669C4.66162 7.74617 4.41245 7.95732 4.12514 8.10325C3.83783 8.24917 3.52036 8.32582 3.19812 8.32706Z" fill="#FF4D4D"/>
<path d="M11.4711 9.6753L10.2199 11.1095C10.1629 11.1742 10.0928 11.226 10.0142 11.2614C9.93561 11.2968 9.85039 11.3151 9.7642 11.3149L6.60816 11.3149C6.56191 11.3149 6.51649 11.3026 6.47654 11.2793C6.43659 11.256 6.40354 11.2225 6.38076 11.1823C6.35797 11.142 6.34628 11.0965 6.34686 11.0502C6.34744 11.004 6.36027 10.9587 6.38406 10.919L7.76599 8.6183L11.4711 9.6753Z" fill="#FF4D4D"/>
<path d="M4.85269 7.88273L4.8527 4.2897C4.85412 4.21119 4.87361 4.13406 4.90965 4.06429C4.9457 3.99453 4.99732 3.934 5.06053 3.8874C5.12374 3.84081 5.19683 3.8094 5.27414 3.79561C5.35145 3.78182 5.43089 3.78602 5.50631 3.80789L7.09367 4.21874L7.46716 4.21874L7.46716 7.95369L7.09367 7.95369L5.50631 8.36454C5.43089 8.3864 5.35145 8.39061 5.27414 8.37682C5.19683 8.36303 5.12374 8.33162 5.06053 8.28502C4.99732 8.23843 4.9457 8.1779 4.90965 8.10814C4.87361 8.03837 4.85412 7.96124 4.85269 7.88273Z" fill="#A2C6CC"/>
<path d="M7.76599 3.55378L6.38406 1.25305C6.36027 1.21338 6.34744 1.16812 6.34686 1.12187C6.34628 1.07562 6.35797 1.03005 6.38076 0.989801C6.40354 0.949551 6.43659 0.916066 6.47654 0.892761C6.51649 0.869455 6.56191 0.857165 6.60816 0.857143L9.7642 0.857143C9.85039 0.857021 9.93561 0.875281 10.0142 0.910704C10.0928 0.946127 10.1629 0.997898 10.2199 1.06257L11.4711 2.49679L7.76599 3.55378Z" fill="#FF4D4D"/>
<path d="M13.5701 9.82087C11.4221 9.85109 9.29753 9.37241 7.37006 8.42399C7.28575 8.37787 7.21552 8.30975 7.16685 8.22688C7.11818 8.14401 7.09289 8.04949 7.09368 7.95339L7.09368 4.21843C7.09289 4.12233 7.11818 4.02782 7.16685 3.94495C7.21552 3.86208 7.28575 3.79395 7.37006 3.74783C9.29753 2.79941 11.4221 2.32074 13.5701 2.35096C15.3495 2.32734 17.1055 2.75799 18.672 3.60217L19.0455 4.21843L19.0455 7.95339L18.672 8.56966C17.1055 9.41383 15.3495 9.84448 13.5701 9.82087Z" fill="#DAEEEF"/>
<path d="M18.6722 8.56975L18.6722 3.60226C19.5427 4.07235 20.3331 4.67745 21.0141 5.39504C21.1887 5.58275 21.2858 5.82962 21.2858 6.08601C21.2858 6.34239 21.1887 6.58926 21.0141 6.77697C20.3331 7.49456 19.5427 8.09966 18.6722 8.56975Z" fill="#FF4D4D"/>
<path d="M12.6963 6.08623C12.6963 7.11761 13.5324 7.9537 14.5638 7.9537C15.5952 7.9537 16.4313 7.11761 16.4313 6.08623C16.4313 5.05485 15.5952 4.21875 14.5638 4.21875C13.5324 4.21875 12.6963 5.05485 12.6963 6.08623Z" fill="#2074EF"/>
<path d="M12.3226 6.08598C12.3226 5.64276 12.454 5.20949 12.7003 4.84096C12.9465 4.47244 13.2965 4.1852 13.706 4.01559C14.1155 3.84598 14.5661 3.8016 15.0008 3.88807C15.4355 3.97454 15.8348 4.18797 16.1482 4.50137C16.4616 4.81478 16.675 5.21408 16.7615 5.64879C16.848 6.08349 16.8036 6.53408 16.634 6.94356C16.4644 7.35305 16.1771 7.70304 15.8086 7.94928C15.4401 8.19552 15.0068 8.32695 14.5636 8.32695C13.9694 8.32636 13.3998 8.09007 12.9796 7.66993C12.5595 7.2498 12.3232 6.68014 12.3226 6.08598ZM16.0576 6.08598C16.0576 5.7905 15.97 5.50165 15.8058 5.25597C15.6416 5.01028 15.4083 4.8188 15.1353 4.70572C14.8623 4.59264 14.5619 4.56306 14.2721 4.6207C13.9823 4.67835 13.7161 4.82064 13.5072 5.02958C13.2983 5.23851 13.156 5.50471 13.0983 5.79452C13.0407 6.08432 13.0703 6.38471 13.1833 6.6577C13.2964 6.93069 13.4879 7.16402 13.7336 7.32818C13.9793 7.49234 14.2681 7.57996 14.5636 7.57996C14.9598 7.57996 15.3398 7.42256 15.62 7.14238C15.9002 6.86221 16.0576 6.48221 16.0576 6.08598Z" fill="#C7DFE5"/>
<path d="M3.94992 7.30866C3.7866 7.31028 3.62455 7.27983 3.47297 7.21902C3.46172 7.2143 3.45197 7.20659 3.44478 7.19673C3.4376 7.18686 3.43325 7.17522 3.43221 7.16306C3.43118 7.1509 3.43348 7.13869 3.43889 7.12775C3.4443 7.11681 3.45259 7.10756 3.46288 7.101C3.55572 7.04532 3.62283 6.95526 3.64963 6.85038C3.23056 6.75581 2.86412 6.50322 2.62663 6.14522C2.6176 6.12686 2.6129 6.10667 2.6129 6.08621C2.6129 6.06575 2.6176 6.04556 2.62663 6.0272C2.86412 5.6692 3.23056 5.41661 3.64963 5.32204C3.62283 5.21716 3.55572 5.1271 3.46288 5.07142C3.45259 5.06486 3.4443 5.05561 3.43889 5.04467C3.43348 5.03373 3.43118 5.02152 3.43221 5.00936C3.43325 4.9972 3.4376 4.98556 3.44478 4.97569C3.45197 4.96583 3.46172 4.95812 3.47297 4.9534C3.62455 4.89259 3.7866 4.86214 3.94992 4.86376C4.12572 4.86438 4.29894 4.90615 4.4557 4.98573C4.61246 5.06531 4.74841 5.18049 4.85266 5.32204L4.85266 6.85038C4.74841 6.99194 4.61246 7.10711 4.4557 7.18669C4.29894 7.26627 4.12572 7.30804 3.94992 7.30866Z" fill="#F7BB26"/>
</svg>
