<svg width="33" height="33" viewBox="0 0 33 33" fill="none" xmlns="http://www.w3.org/2000/svg">
<path d="M17 32.5C25.5604 32.5 32.5 25.5604 32.5 17C32.5 8.43959 25.5604 1.5 17 1.5C8.43959 1.5 1.5 8.43959 1.5 17C1.5 25.5604 8.43959 32.5 17 32.5Z" fill="#121212" stroke="#262626"/>
<path d="M16 31.5C24.5604 31.5 31.5 24.5604 31.5 16C31.5 7.43959 24.5604 0.5 16 0.5C7.43959 0.5 0.5 7.43959 0.5 16C0.5 24.5604 7.43959 31.5 16 31.5Z" fill="white" stroke="#262626"/>
<path d="M12 20H8L14 26V6H12V20ZM18 9V26H20V12H24L18 6V9Z" fill="#262626"/>
</svg>
