<svg width="13" height="24" viewBox="0 0 13 24" fill="none" xmlns="http://www.w3.org/2000/svg">
<g id="Group 369894">
<path id="Vector" d="M8.7149 21.1022C8.7183 21.4513 8.65316 21.7978 8.52318 22.1218C8.51315 22.146 8.49668 22.1669 8.47557 22.1824C8.45445 22.1979 8.4295 22.2072 8.40343 22.2095C8.37735 22.2117 8.35117 22.2068 8.32772 22.1952C8.30427 22.1835 8.28445 22.1657 8.27044 22.1436C8.15115 21.9458 7.95848 21.8033 7.73448 21.7471C7.5322 22.6431 6.99218 23.4266 6.2268 23.9345C6.18748 23.9539 6.14425 23.9639 6.10043 23.9639C6.05662 23.9639 6.01339 23.9539 5.97407 23.9345C5.20869 23.4266 4.66867 22.6431 4.46639 21.7471C4.24239 21.8033 4.04971 21.9458 3.93043 22.1436C3.91641 22.1657 3.8966 22.1835 3.87315 22.1952C3.8497 22.2068 3.82351 22.2117 3.79744 22.2095C3.77137 22.2072 3.74642 22.1979 3.7253 22.1824C3.70418 22.1669 3.68772 22.146 3.67769 22.1218C3.54771 21.7978 3.48257 21.4513 3.48597 21.1022C3.48741 20.7262 3.57684 20.3558 3.74708 20.0206C3.91733 19.6855 4.16367 19.3948 4.46639 19.1718L4.35746 18.7361H7.84341L7.73448 19.1718C8.0372 19.3948 8.28354 19.6855 8.45379 20.0206C8.62403 20.3558 8.71346 20.7262 8.7149 21.1022Z" fill="#FF4D4D"/>
<path id="Vector_2" d="M10.2878 11.4504L11.9611 12.9102C12.0366 12.9767 12.097 13.0585 12.1383 13.1501C12.1796 13.2418 12.2009 13.3412 12.2008 13.4418V17.1238C12.2007 17.1778 12.1864 17.2308 12.1592 17.2774C12.132 17.324 12.093 17.3626 12.046 17.3891C11.999 17.4157 11.9459 17.4294 11.8919 17.4287C11.838 17.428 11.7852 17.413 11.7389 17.3853L9.05469 15.773L10.2878 11.4504Z" fill="#FF4D4D"/>
<path id="Vector_3" d="M8.19652 19.1718H4.00465C3.91305 19.1701 3.82307 19.1474 3.74167 19.1053C3.66028 19.0633 3.58966 19.0031 3.5353 18.9293C3.48094 18.8556 3.4443 18.7703 3.42821 18.6801C3.41213 18.5899 3.41703 18.4972 3.44254 18.4092L3.92186 16.5573V16.1216H8.27931V16.5573L8.75863 18.4092C8.78414 18.4972 8.78904 18.5899 8.77295 18.6801C8.75687 18.7703 8.72022 18.8556 8.66586 18.9293C8.6115 19.0031 8.54089 19.0633 8.45949 19.1053C8.3781 19.1474 8.28812 19.1701 8.19652 19.1718Z" fill="#A2C6CC"/>
<path id="Vector_4" d="M3.14608 15.773L0.46189 17.3853C0.415614 17.413 0.362805 17.428 0.30885 17.4287C0.254896 17.4294 0.201727 17.4157 0.154769 17.3891C0.107811 17.3626 0.0687444 17.324 0.0415549 17.2774C0.0143654 17.2308 2.63915e-05 17.1778 7.07637e-07 17.1238V13.4418C-0.000141533 13.3412 0.0211614 13.2418 0.0624882 13.1501C0.103815 13.0585 0.164215 12.9767 0.23966 12.9102L1.91292 11.4504L3.14608 15.773Z" fill="#FF4D4D"/>
<path id="Vector_5" d="M10.4577 9.00154C10.4929 11.5075 9.93448 13.9862 8.82799 16.2349C8.77418 16.3333 8.6947 16.4152 8.59802 16.472C8.50134 16.5288 8.39107 16.5583 8.27895 16.5574H3.92151C3.80939 16.5583 3.69912 16.5288 3.60244 16.472C3.50576 16.4152 3.42628 16.3333 3.37247 16.2349C2.26598 13.9862 1.70753 11.5075 1.74278 9.00154C1.71524 6.9256 2.21765 4.87693 3.20253 3.04927L3.92151 2.61353H8.27895L8.99793 3.04927C9.98281 4.87693 10.4852 6.9256 10.4577 9.00154Z" fill="#DAEEEF"/>
<path id="Vector_6" d="M8.99804 3.04912H3.20264C3.75108 2.03361 4.45703 1.11146 5.29421 0.317002C5.51321 0.113261 5.80123 0 6.10034 0C6.39945 0 6.68747 0.113261 6.90647 0.317002C7.74365 1.11146 8.4496 2.03361 8.99804 3.04912Z" fill="#FF4D4D"/>
<path id="Vector_7" d="M6.1006 10.021C7.30387 10.021 8.27932 9.04557 8.27932 7.8423C8.27932 6.63902 7.30387 5.66357 6.1006 5.66357C4.89732 5.66357 3.92188 6.63902 3.92188 7.8423C3.92188 9.04557 4.89732 10.021 6.1006 10.021Z" fill="#2074EF"/>
<path id="Vector_8" d="M6.10031 10.457C5.58322 10.457 5.07774 10.3036 4.64779 10.0163C4.21784 9.72907 3.88274 9.32074 3.68486 8.84301C3.48697 8.36528 3.4352 7.8396 3.53608 7.33244C3.63696 6.82528 3.88596 6.35943 4.2516 5.99379C4.61724 5.62815 5.08309 5.37914 5.59025 5.27826C6.09741 5.17738 6.62309 5.22916 7.10082 5.42704C7.57855 5.62493 7.98688 5.96003 8.27416 6.38998C8.56144 6.81992 8.71478 7.3254 8.71478 7.8425C8.71409 8.53568 8.43841 9.20028 7.94825 9.69044C7.4581 10.1806 6.7935 10.4563 6.10031 10.457ZM6.10031 6.09952C5.75558 6.09952 5.41859 6.20174 5.13196 6.39326C4.84533 6.58478 4.62193 6.857 4.49001 7.17549C4.35808 7.49398 4.32357 7.84443 4.39082 8.18254C4.45807 8.52064 4.62408 8.83121 4.86784 9.07497C5.1116 9.31873 5.42217 9.48473 5.76027 9.55198C6.09838 9.61924 6.44883 9.58472 6.76732 9.4528C7.08581 9.32088 7.35802 9.09748 7.54954 8.81084C7.74106 8.52421 7.84329 8.18723 7.84329 7.8425C7.84329 7.38023 7.65965 6.9369 7.33278 6.61003C7.00591 6.28315 6.56258 6.09952 6.10031 6.09952Z" fill="#C7DFE5"/>
<path id="Vector_9" d="M7.52677 20.2251C7.52866 20.4156 7.49313 20.6047 7.42219 20.7815C7.41669 20.7946 7.40769 20.806 7.39618 20.8144C7.38467 20.8228 7.37109 20.8279 7.35691 20.8291C7.34272 20.8303 7.32847 20.8276 7.31571 20.8213C7.30295 20.815 7.29215 20.8053 7.2845 20.7933C7.21954 20.685 7.11447 20.6067 6.99211 20.5754C6.88178 21.0643 6.58709 21.4918 6.16943 21.7689C6.14801 21.7794 6.12445 21.7849 6.10058 21.7849C6.07671 21.7849 6.05315 21.7794 6.03173 21.7689C5.61407 21.4918 5.31938 21.0643 5.20905 20.5754C5.08669 20.6067 4.98162 20.685 4.91666 20.7933C4.90901 20.8053 4.89821 20.815 4.88545 20.8213C4.87269 20.8276 4.85844 20.8303 4.84425 20.8291C4.83007 20.8279 4.81649 20.8228 4.80498 20.8144C4.79347 20.806 4.78447 20.7946 4.77897 20.7815C4.70803 20.6047 4.6725 20.4156 4.67439 20.2251C4.67511 20.02 4.72384 19.8179 4.81669 19.635C4.90953 19.4521 5.0439 19.2935 5.20905 19.1719H6.99211C7.15726 19.2935 7.29163 19.4521 7.38447 19.635C7.47732 19.8179 7.52605 20.02 7.52677 20.2251Z" fill="#F7BB26"/>
</g>
</svg>
