<svg width="17" height="25" viewBox="0 0 17 25" fill="none" xmlns="http://www.w3.org/2000/svg">
<g id="Group 369892">
<path id="Vector" d="M15.8623 7.01394L1.80984 1.43953C1.61438 1.36149 1.39593 1.39354 1.22474 1.52314C1.05356 1.65275 0.952637 1.86736 0.952637 2.09452V13.2433C0.952637 13.4705 1.05484 13.6837 1.22474 13.8133C1.33333 13.8969 1.46236 13.9401 1.59138 13.9401C1.66548 13.9401 1.7383 13.9262 1.80984 13.8983L15.8623 8.32393C16.114 8.22359 16.2826 7.96159 16.2826 7.66893C16.2826 7.37628 16.114 7.11428 15.8623 7.01394Z" fill="#34E724"/>
<path id="Vector_2" d="M0.782715 24.0868C0.506715 24.0868 0.282715 23.7551 0.282715 23.3464V1.13539C0.282715 0.726704 0.506715 0.39502 0.782715 0.39502C1.05871 0.39502 1.28271 0.726704 1.28271 1.13539V23.3464C1.28271 23.7551 1.05871 24.0868 0.782715 24.0868Z" fill="white"/>
</g>
</svg>
