<svg width="16" height="16" viewBox="0 0 16 16" fill="none" xmlns="http://www.w3.org/2000/svg">
<g id="Group 369891">
<path id="Vector" d="M15.9998 8.00006C15.9998 12.4182 12.4181 15.9999 7.99994 15.9999C3.58164 15.9999 0 12.4182 0 8.00006C0 3.58176 3.58164 0.00012207 7.99994 0.00012207C12.4181 0.00012207 15.9998 3.58176 15.9998 8.00006Z" fill="#EFE2DD"/>
<path id="Vector_2" d="M16 8.0002C16 12.4185 12.4184 16.0001 8.00007 16.0001C5.39328 16.0001 3.07775 14.7536 1.61719 12.8236C3.06456 14.2698 5.06382 15.1638 7.2712 15.1638C11.6895 15.1638 15.2711 11.5821 15.2711 7.1639C15.2711 5.35203 14.6687 3.68065 13.6531 2.33948C15.103 3.78746 16 5.78891 16 8.0002Z" fill="#E1D3CE"/>
<path id="Vector_3" d="M14.5656 3.4282C14.1487 4.20127 13.3313 4.72641 12.3913 4.72641C11.0273 4.72641 9.92188 3.62095 9.92188 2.25694C9.92188 1.55126 10.2179 0.914791 10.6927 0.464722C12.2723 1.02929 13.6225 2.07604 14.5656 3.4282Z" fill="#CDBFBA"/>
<path id="Vector_4" d="M14.5656 3.4281C14.1487 4.20116 13.3313 4.7263 12.3913 4.7263C11.3693 4.7263 10.4926 4.10595 10.1172 3.22119C10.5696 3.72936 11.2285 4.04943 11.9624 4.04943C12.8738 4.04943 13.67 3.55566 14.0976 2.82104C14.2632 3.0155 14.4194 3.21826 14.5656 3.4281Z" fill="#B9ACAC"/>
<path id="Vector_5" d="M8.15293 3.42699C8.15293 4.14452 7.57127 4.72618 6.85387 4.72618C6.13635 4.72618 5.55469 4.14452 5.55469 3.42699C5.55469 2.70959 6.13635 2.12793 6.85387 2.12793C7.57127 2.12793 8.15293 2.70959 8.15293 3.42699Z" fill="#CDBFBA"/>
<path id="Vector_6" d="M8.15233 3.42699C8.15233 4.14464 7.57079 4.72618 6.85314 4.72618C6.51306 4.72618 6.20349 4.59568 5.97192 4.3817C6.10693 4.42943 6.25256 4.45543 6.40405 4.45543C7.1217 4.45543 7.70323 3.87389 7.70323 3.15624C7.70323 2.77832 7.54186 2.43835 7.28429 2.20129C7.7899 2.37903 8.15233 2.86083 8.15233 3.42699Z" fill="#B9ACAC"/>
<path id="Vector_7" d="M13.9966 10.1818C13.9966 10.5911 13.6648 10.923 13.2555 10.923C12.8462 10.923 12.5144 10.5911 12.5144 10.1818C12.5144 9.77246 12.8462 9.44067 13.2555 9.44067C13.6648 9.44067 13.9966 9.77246 13.9966 10.1818Z" fill="#CDBFBA"/>
<path id="Vector_8" d="M13.9969 10.1818C13.9969 10.5907 13.6652 10.9227 13.2559 10.9227C13.016 10.9227 12.803 10.8088 12.6672 10.6321C12.7218 10.6453 12.7789 10.652 12.8376 10.652C13.2469 10.652 13.5786 10.3199 13.5786 9.91064C13.5786 9.74133 13.5218 9.58508 13.4265 9.46021C13.7538 9.53723 13.9969 9.83105 13.9969 10.1818Z" fill="#B9ACAC"/>
<path id="Vector_9" d="M9.14267 7.9999C9.14267 9.26236 8.11917 10.2853 6.85724 10.2853C5.59479 10.2853 4.57129 9.26236 4.57129 7.9999C4.57129 6.73745 5.59479 5.71448 6.85724 5.71448C8.11917 5.71448 9.14267 6.73745 9.14267 7.9999Z" fill="#CDBFBA"/>
<path id="Vector_10" d="M8.19749 11.239C8.19749 11.8231 7.72411 12.2965 7.14001 12.2965C6.55603 12.2965 6.08252 11.8231 6.08252 11.239C6.08252 10.655 6.55603 10.1815 7.14001 10.1815C7.72411 10.1815 8.19749 10.655 8.19749 11.239Z" fill="#CDBFBA"/>
<path id="Vector_11" d="M8.19737 11.2391C8.19737 11.8234 7.72399 12.2965 7.14013 12.2965C6.86035 12.2965 6.60571 12.1877 6.41675 12.0104C6.47253 12.0193 6.52991 12.0242 6.58826 12.0242C7.17248 12.0242 7.64562 11.5506 7.64562 10.9665C7.64562 10.6623 7.51733 10.3884 7.31201 10.1959C7.81408 10.2777 8.19737 10.7137 8.19737 11.2391Z" fill="#B9ACAC"/>
<g id="Group">
<path id="Vector_12" d="M4.67272 11.7148C4.67272 12.0063 4.43639 12.2425 4.14502 12.2425C3.85351 12.2425 3.61719 12.0063 3.61719 11.7148C3.61719 11.4233 3.85351 11.1871 4.14502 11.1871C4.43639 11.1871 4.67272 11.4233 4.67272 11.7148Z" fill="#CDBFBA"/>
<path id="Vector_13" d="M11.8153 6.10864C11.8153 6.26782 11.6863 6.39697 11.5271 6.39697C11.3678 6.39697 11.2388 6.26782 11.2388 6.10864C11.2388 5.94946 11.3678 5.82031 11.5271 5.82031C11.6863 5.82031 11.8153 5.94946 11.8153 6.10864Z" fill="#CDBFBA"/>
<path id="Vector_14" d="M5.84277 7.71203C5.84277 7.87121 5.71362 8.00036 5.55444 8.00036C5.39526 8.00036 5.26611 7.87121 5.26611 7.71203C5.26611 7.55286 5.39526 7.42383 5.55444 7.42383C5.71362 7.42383 5.84277 7.55286 5.84277 7.71203Z" fill="#CDBFBA"/>
<path id="Vector_15" d="M12.5325 7.69018C12.5325 7.84936 12.4033 7.97851 12.2441 7.97851C12.085 7.97851 11.9558 7.84936 11.9558 7.69018C11.9558 7.531 12.085 7.40198 12.2441 7.40198C12.4033 7.40198 12.5325 7.531 12.5325 7.69018Z" fill="#CDBFBA"/>
<path id="Vector_16" d="M4.19372 4.72619C4.19372 4.88537 4.06457 5.01452 3.90539 5.01452C3.74621 5.01452 3.61719 4.88537 3.61719 4.72619C3.61719 4.56702 3.74621 4.43799 3.90539 4.43799C4.06457 4.43799 4.19372 4.56702 4.19372 4.72619Z" fill="#CDBFBA"/>
</g>
</g>
</svg>
