<svg width="28" height="40" viewBox="0 0 28 40" fill="none" xmlns="http://www.w3.org/2000/svg">
<g filter="url(#filter0_d_167_1853)">
<path d="M19.9998 28.0001C19.9998 32.4182 16.4181 35.9999 11.9999 35.9999C7.58164 35.9999 4 32.4182 4 28.0001C4 23.5818 7.58164 20.0001 11.9999 20.0001C16.4181 20.0001 19.9998 23.5818 19.9998 28.0001Z" fill="#EFE2DD"/>
<path d="M20 28.0002C20 32.4185 16.4184 36.0001 12.0001 36.0001C9.39328 36.0001 7.07775 34.7536 5.61719 32.8236C7.06456 34.2698 9.06382 35.1638 11.2712 35.1638C15.6895 35.1638 19.2711 31.5821 19.2711 27.1639C19.2711 25.352 18.6687 23.6807 17.6531 22.3395C19.103 23.7875 20 25.7889 20 28.0002Z" fill="#E1D3CE"/>
<path d="M18.5656 23.4282C18.1487 24.2013 17.3313 24.7264 16.3913 24.7264C15.0273 24.7264 13.9219 23.6209 13.9219 22.2569C13.9219 21.5513 14.2179 20.9148 14.6927 20.4647C16.2723 21.0293 17.6225 22.076 18.5656 23.4282Z" fill="#CDBFBA"/>
<path d="M18.5656 23.4281C18.1487 24.2012 17.3313 24.7263 16.3913 24.7263C15.3693 24.7263 14.4926 24.1059 14.1172 23.2212C14.5696 23.7294 15.2285 24.0494 15.9624 24.0494C16.8738 24.0494 17.67 23.5557 18.0976 22.821C18.2632 23.0155 18.4194 23.2183 18.5656 23.4281Z" fill="#B9ACAC"/>
<path d="M12.1529 23.427C12.1529 24.1445 11.5713 24.7262 10.8539 24.7262C10.1363 24.7262 9.55469 24.1445 9.55469 23.427C9.55469 22.7096 10.1363 22.1279 10.8539 22.1279C11.5713 22.1279 12.1529 22.7096 12.1529 23.427Z" fill="#CDBFBA"/>
<path d="M12.1523 23.427C12.1523 24.1446 11.5708 24.7262 10.8531 24.7262C10.5131 24.7262 10.2035 24.5957 9.97192 24.3817C10.1069 24.4294 10.2526 24.4554 10.404 24.4554C11.1217 24.4554 11.7032 23.8739 11.7032 23.1562C11.7032 22.7783 11.5419 22.4384 11.2843 22.2013C11.7899 22.379 12.1523 22.8608 12.1523 23.427Z" fill="#B9ACAC"/>
<path d="M17.9966 30.1818C17.9966 30.5911 17.6648 30.923 17.2555 30.923C16.8462 30.923 16.5144 30.5911 16.5144 30.1818C16.5144 29.7725 16.8462 29.4407 17.2555 29.4407C17.6648 29.4407 17.9966 29.7725 17.9966 30.1818Z" fill="#CDBFBA"/>
<path d="M17.9969 30.1818C17.9969 30.5907 17.6652 30.9227 17.2559 30.9227C17.016 30.9227 16.803 30.8088 16.6672 30.6321C16.7218 30.6453 16.7789 30.652 16.8376 30.652C17.2469 30.652 17.5786 30.3199 17.5786 29.9106C17.5786 29.7413 17.5218 29.5851 17.4265 29.4602C17.7538 29.5372 17.9969 29.8311 17.9969 30.1818Z" fill="#B9ACAC"/>
<path d="M13.1427 27.9999C13.1427 29.2624 12.1192 30.2853 10.8572 30.2853C9.59479 30.2853 8.57129 29.2624 8.57129 27.9999C8.57129 26.7374 9.59479 25.7145 10.8572 25.7145C12.1192 25.7145 13.1427 26.7374 13.1427 27.9999Z" fill="#CDBFBA"/>
<path d="M12.1975 31.239C12.1975 31.8231 11.7241 32.2965 11.14 32.2965C10.556 32.2965 10.0825 31.8231 10.0825 31.239C10.0825 30.655 10.556 30.1815 11.14 30.1815C11.7241 30.1815 12.1975 30.655 12.1975 31.239Z" fill="#CDBFBA"/>
<path d="M12.1974 31.2391C12.1974 31.8234 11.724 32.2965 11.1401 32.2965C10.8603 32.2965 10.6057 32.1877 10.4167 32.0104C10.4725 32.0193 10.5299 32.0242 10.5883 32.0242C11.1725 32.0242 11.6456 31.5506 11.6456 30.9665C11.6456 30.6623 11.5173 30.3884 11.312 30.1959C11.8141 30.2777 12.1974 30.7137 12.1974 31.2391Z" fill="#B9ACAC"/>
<path d="M8.67272 31.7148C8.67272 32.0063 8.43639 32.2425 8.14502 32.2425C7.85351 32.2425 7.61719 32.0063 7.61719 31.7148C7.61719 31.4233 7.85351 31.1871 8.14502 31.1871C8.43639 31.1871 8.67272 31.4233 8.67272 31.7148Z" fill="#CDBFBA"/>
<path d="M15.8153 26.1086C15.8153 26.2678 15.6863 26.397 15.5271 26.397C15.3678 26.397 15.2388 26.2678 15.2388 26.1086C15.2388 25.9495 15.3678 25.8203 15.5271 25.8203C15.6863 25.8203 15.8153 25.9495 15.8153 26.1086Z" fill="#CDBFBA"/>
<path d="M9.84277 27.712C9.84277 27.8712 9.71362 28.0004 9.55444 28.0004C9.39526 28.0004 9.26611 27.8712 9.26611 27.712C9.26611 27.5529 9.39526 27.4238 9.55444 27.4238C9.71362 27.4238 9.84277 27.5529 9.84277 27.712Z" fill="#CDBFBA"/>
<path d="M16.5325 27.6902C16.5325 27.8494 16.4033 27.9785 16.2441 27.9785C16.085 27.9785 15.9558 27.8494 15.9558 27.6902C15.9558 27.531 16.085 27.402 16.2441 27.402C16.4033 27.402 16.5325 27.531 16.5325 27.6902Z" fill="#CDBFBA"/>
<path d="M8.19372 24.7262C8.19372 24.8854 8.06457 25.0145 7.90539 25.0145C7.74621 25.0145 7.61719 24.8854 7.61719 24.7262C7.61719 24.567 7.74621 24.438 7.90539 24.438C8.06457 24.438 8.19372 24.567 8.19372 24.7262Z" fill="#CDBFBA"/>
<path d="M25.8623 11.0139L11.8098 5.43953C11.6144 5.36149 11.3959 5.39354 11.2247 5.52314C11.0536 5.65275 10.9526 5.86736 10.9526 6.09452V17.2433C10.9526 17.4705 11.0548 17.6837 11.2247 17.8133C11.3333 17.8969 11.4624 17.9401 11.5914 17.9401C11.6655 17.9401 11.7383 17.9262 11.8098 17.8983L25.8623 12.3239C26.114 12.2236 26.2826 11.9616 26.2826 11.6689C26.2826 11.3763 26.114 11.1143 25.8623 11.0139Z" fill="#34E724"/>
<path d="M10.7827 28.0868C10.5067 28.0868 10.2827 27.7551 10.2827 27.3464V5.13539C10.2827 4.7267 10.5067 4.39502 10.7827 4.39502C11.0587 4.39502 11.2827 4.7267 11.2827 5.13539V27.3464C11.2827 27.7551 11.0587 28.0868 10.7827 28.0868Z" fill="white"/>
</g>
<defs>
<filter id="filter0_d_167_1853" x="0" y="0" width="29" height="41" filterUnits="userSpaceOnUse" color-interpolation-filters="sRGB">
<feFlood flood-opacity="0" result="BackgroundImageFix"/>
<feColorMatrix in="SourceAlpha" type="matrix" values="0 0 0 0 0 0 0 0 0 0 0 0 0 0 0 0 0 0 127 0" result="hardAlpha"/>
<feOffset dx="1" dy="1"/>
<feComposite in2="hardAlpha" operator="out"/>
<feColorMatrix type="matrix" values="0 0 0 0 0 0 0 0 0 0 0 0 0 0 0 0 0 0 0.2 0"/>
<feBlend mode="normal" in2="BackgroundImageFix" result="effect1_dropShadow_167_1853"/>
<feBlend mode="normal" in="SourceGraphic" in2="effect1_dropShadow_167_1853" result="shape"/>
</filter>
</defs>
</svg>
