<svg xmlns="http://www.w3.org/2000/svg" width="16" height="16" viewBox="0 0 16 16" fill="none">
  <path d="M15.9998 7.99994C15.9998 12.4181 12.4181 15.9998 7.99994 15.9998C3.58164 15.9998 0 12.4181 0 7.99994C0 3.58164 3.58164 0 7.99994 0C12.4181 0 15.9998 3.58164 15.9998 7.99994Z" fill="#EDFF21"/>
  <path d="M16 8.00008C16 12.4184 12.4184 16 8.00007 16C5.39328 16 3.07775 14.7534 1.61719 12.8235C3.06456 14.2697 5.06382 15.1637 7.2712 15.1637C11.6895 15.1637 15.2711 11.582 15.2711 7.16378C15.2711 5.35191 14.6687 3.68053 13.6531 2.33936C15.103 3.78734 16 5.78879 16 8.00008Z" fill="#D2A225"/>
  <path d="M14.5656 3.42808C14.1487 4.20114 13.3313 4.72629 12.3913 4.72629C11.0273 4.72629 9.92188 3.62083 9.92188 2.25682C9.92188 1.55114 10.2179 0.914669 10.6927 0.4646C12.2723 1.02917 13.6225 2.07592 14.5656 3.42808Z" fill="#F9C407"/>
  <path d="M14.5656 3.4281C14.1487 4.20116 13.3313 4.7263 12.3913 4.7263C11.3693 4.7263 10.4926 4.10595 10.1172 3.22119C10.5696 3.72936 11.2285 4.04943 11.9624 4.04943C12.8738 4.04943 13.67 3.55566 14.0976 2.82104C14.2632 3.0155 14.4194 3.21826 14.5656 3.4281Z" fill="#FFF510"/>
  <path d="M8.15293 3.42699C8.15293 4.14452 7.57127 4.72618 6.85387 4.72618C6.13635 4.72618 5.55469 4.14452 5.55469 3.42699C5.55469 2.70959 6.13635 2.12793 6.85387 2.12793C7.57127 2.12793 8.15293 2.70959 8.15293 3.42699Z" fill="#F9C407"/>
  <path d="M8.15233 3.42687C8.15233 4.14452 7.57079 4.72605 6.85314 4.72605C6.51306 4.72605 6.20349 4.59556 5.97192 4.38157C6.10693 4.4293 6.25256 4.4553 6.40405 4.4553C7.1217 4.4553 7.70323 3.87377 7.70323 3.15612C7.70323 2.77819 7.54186 2.43823 7.28429 2.20117C7.7899 2.3789 8.15233 2.86071 8.15233 3.42687Z" fill="#FFF510"/>
  <path d="M13.9966 10.1818C13.9966 10.5911 13.6648 10.923 13.2555 10.923C12.8462 10.923 12.5144 10.5911 12.5144 10.1818C12.5144 9.77246 12.8462 9.44067 13.2555 9.44067C13.6648 9.44067 13.9966 9.77246 13.9966 10.1818Z" fill="#F9C407"/>
  <path d="M13.9969 10.1818C13.9969 10.5907 13.6652 10.9227 13.2559 10.9227C13.016 10.9227 12.803 10.8088 12.6672 10.6321C12.7218 10.6453 12.7789 10.652 12.8376 10.652C13.2469 10.652 13.5786 10.3199 13.5786 9.91064C13.5786 9.74133 13.5218 9.58508 13.4265 9.46021C13.7538 9.53723 13.9969 9.83105 13.9969 10.1818Z" fill="#FFF510"/>
  <path d="M9.14267 7.99978C9.14267 9.26224 8.11917 10.2852 6.85724 10.2852C5.59479 10.2852 4.57129 9.26224 4.57129 7.99978C4.57129 6.73733 5.59479 5.71436 6.85724 5.71436C8.11917 5.71436 9.14267 6.73733 9.14267 7.99978Z" fill="#F9C407"/>
  <path d="M8.19749 11.2389C8.19749 11.823 7.72411 12.2964 7.14001 12.2964C6.55603 12.2964 6.08252 11.823 6.08252 11.2389C6.08252 10.6549 6.55603 10.1814 7.14001 10.1814C7.72411 10.1814 8.19749 10.6549 8.19749 11.2389Z" fill="#F9C407"/>
  <path d="M8.19737 11.239C8.19737 11.8232 7.72399 12.2964 7.14013 12.2964C6.86035 12.2964 6.60571 12.1876 6.41675 12.0102C6.47253 12.0192 6.52991 12.024 6.58826 12.024C7.17248 12.024 7.64562 11.5505 7.64562 10.9664C7.64562 10.6622 7.51733 10.3883 7.31201 10.1958C7.81408 10.2776 8.19737 10.7136 8.19737 11.239Z" fill="#FFF510"/>
  <path d="M4.67272 11.7147C4.67272 12.0062 4.43639 12.2424 4.14502 12.2424C3.85351 12.2424 3.61719 12.0062 3.61719 11.7147C3.61719 11.4232 3.85351 11.187 4.14502 11.187C4.43639 11.187 4.67272 11.4232 4.67272 11.7147Z" fill="#F9C407"/>
  <path d="M11.8153 6.1084C11.8153 6.26757 11.6863 6.39672 11.5271 6.39672C11.3678 6.39672 11.2388 6.26757 11.2388 6.1084C11.2388 5.94922 11.3678 5.82007 11.5271 5.82007C11.6863 5.82007 11.8153 5.94922 11.8153 6.1084Z" fill="#F9C407"/>
  <path d="M5.84277 7.71179C5.84277 7.87097 5.71362 8.00012 5.55444 8.00012C5.39526 8.00012 5.26611 7.87097 5.26611 7.71179C5.26611 7.55261 5.39526 7.42358 5.55444 7.42358C5.71362 7.42358 5.84277 7.55261 5.84277 7.71179Z" fill="#F9C407"/>
  <path d="M12.5325 7.69006C12.5325 7.84924 12.4033 7.97839 12.2441 7.97839C12.085 7.97839 11.9558 7.84924 11.9558 7.69006C11.9558 7.53088 12.085 7.40186 12.2441 7.40186C12.4033 7.40186 12.5325 7.53088 12.5325 7.69006Z" fill="#F9C407"/>
  <path d="M4.19372 4.72595C4.19372 4.88513 4.06457 5.01428 3.90539 5.01428C3.74621 5.01428 3.61719 4.88513 3.61719 4.72595C3.61719 4.56677 3.74621 4.43774 3.90539 4.43774C4.06457 4.43774 4.19372 4.56677 4.19372 4.72595Z" fill="#F9C407"/>
</svg>