<svg width="23" height="23" viewBox="0 0 23 23" fill="none" xmlns="http://www.w3.org/2000/svg">
<g id="Group 369895">
<ellipse id="Ellipse 294" cx="8.62527" cy="19.3036" rx="8.21438" ry="3.69643" fill="white"/>
<path id="Vector" d="M22.184 6.1977L8.63024 1.26913C8.44172 1.20013 8.23103 1.22847 8.06592 1.34306C7.90081 1.45764 7.80347 1.64739 7.80347 1.84823V11.7054C7.80347 11.9062 7.90204 12.0947 8.06592 12.2093C8.17065 12.2833 8.2951 12.3214 8.41955 12.3214C8.49101 12.3214 8.56124 12.3091 8.63024 12.2845L22.184 7.35591C22.4267 7.2672 22.5893 7.03555 22.5893 6.7768C22.5893 6.51805 22.4267 6.28641 22.184 6.1977Z" fill="#2DE31D"/>
<path id="Vector_2" d="M8.41955 19.7143C8.07947 19.7143 7.80347 19.4383 7.80347 19.0982V0.616071C7.80347 0.276 8.07947 0 8.41955 0C8.75962 0 9.03562 0.276 9.03562 0.616071V19.0982C9.03562 19.4383 8.75962 19.7143 8.41955 19.7143Z" fill="#B4B4B4"/>
</g>
</svg>
